HIERARCHY
ROOT Hips
{
	OFFSET 0.000000 0.000000 0.000000
	CHANNELS 6 Xposition Yposition Zposition Zrotation Yrotation Xrotation 
	JOINT LowerBack
	{
		OFFSET 0.000000 0.000000 0.000000
		CHANNELS 3 Zrotation Yrotation Xrotation
		JOINT Spine
		{
			OFFSET 0.028270 2.035590 -0.193380
			CHANNELS 3 Zrotation Yrotation Xrotation
			JOINT Spine1
			{
				OFFSET 0.056720 2.048850 -0.042750
				CHANNELS 3 Zrotation Yrotation Xrotation
				JOINT Neck
				{
					OFFSET 0.000000 0.000000 0.000000
					CHANNELS 3 Zrotation Yrotation Xrotation
					JOINT Neck1
					{
						OFFSET -0.054170 1.746240 0.172020
						CHANNELS 3 Zrotation Yrotation Xrotation
						JOINT Head
						{
							OFFSET 0.104070 1.761360 -0.123970
							CHANNELS 3 Zrotation Yrotation Xrotation
							End Site
							{
								OFFSET 0.000000 0.000000 0.000000
							}
						}
					}
				}
				JOINT LeftShoulder
				{
					OFFSET 0.000000 0.000000 0.000000
					CHANNELS 3 Zrotation Yrotation Xrotation
					JOINT LeftArm
					{
						OFFSET 3.362410 1.200890 -0.311210
						CHANNELS 3 Zrotation Yrotation Xrotation
						JOINT LeftForeArm
						{
							OFFSET 4.983000 -0.000000 -0.000000
							CHANNELS 3 Zrotation Yrotation Xrotation
							JOINT LeftHand
							{
								OFFSET 3.483560 -0.000000 -0.000000
								CHANNELS 3 Zrotation Yrotation Xrotation
								JOINT LeftFingerBase
								{
									OFFSET 0.000000 0.000000 0.000000
									CHANNELS 3 Zrotation Yrotation Xrotation
									JOINT LeftHandIndex1
									{
										OFFSET 0.715260 -0.000000 -0.000000
										CHANNELS 3 Zrotation Yrotation Xrotation
										End Site
										{
											OFFSET 0.000000 0.000000 0.000000
										}
									}
								}
								JOINT LThumb
								{
									OFFSET 0.000000 0.000000 0.000000
									CHANNELS 3 Zrotation Yrotation Xrotation
									End Site
									{
										OFFSET 0.000000 0.000000 0.000000
									}
								}
							}
						}
					}
				}
				JOINT RightShoulder
				{
					OFFSET 0.000000 0.000000 0.000000
					CHANNELS 3 Zrotation Yrotation Xrotation
					JOINT RightArm
					{
						OFFSET -3.136600 1.374050 -0.404650
						CHANNELS 3 Zrotation Yrotation Xrotation
						JOINT RightForeArm
						{
							OFFSET -5.241900 -0.000000 -0.000000
							CHANNELS 3 Zrotation Yrotation Xrotation
							JOINT RightHand
							{
								OFFSET -3.444170 -0.000000 -0.000000
								CHANNELS 3 Zrotation Yrotation Xrotation
								JOINT RightFingerBase
								{
									OFFSET 0.000000 0.000000 0.000000
									CHANNELS 3 Zrotation Yrotation Xrotation
									JOINT RightHandIndex1
									{
										OFFSET -0.622530 -0.000000 -0.000000
										CHANNELS 3 Zrotation Yrotation Xrotation
										End Site
										{
											OFFSET 0.000000 0.000000 0.000000
										}
									}
								}
								JOINT RThumb
								{
									OFFSET 0.000000 0.000000 0.000000
									CHANNELS 3 Zrotation Yrotation Xrotation
									End Site
									{
										OFFSET 0.000000 0.000000 0.000000
									}
								}
							}
						}
					}
				}
			}
		}
	}
}
}
MOTION
Frames: 15
Frame Time: 0.008333
10.563506 16.390215 2.762648 124.678992 -84.633192 -116.181767 3.767305 -7.794831 -9.439093 0.895608 -8.262368 -4.112418 -5.055012 -8.268558 2.243119 9.203052 -21.320649 -12.206191 -1.805677 -0.064418 -1.149808 0.000000 0.000000 0.000000 11.417264 5.856504 -0.697431 -11.485540 -44.307147 7.493729 177.790487 -67.604788 -179.942827 -3.679984 4.943786 -0.161701 0.386316 0.513717 0.000000 0.000000 0.000000 0.000000 0.000000 0.000000 0.000000 11.383822 -22.193639 2.300027 44.013296 -18.713490 -28.603348 3.210532 33.358580 0.003767 -1.955358 1.864016 -0.034811 0.147711 -0.059075 -0.000000 0.000000 0.000000 0.000000 0.000000 0.000000 0.000000 
10.411923 16.398802 2.721887 130.054600 -84.794915 -121.805523 4.328421 -7.688808 -9.244944 0.947879 -8.205013 -4.080742 -5.378691 -8.199568 2.232410 9.424982 -21.110676 -12.286096 -2.013554 -0.082020 -1.176316 0.000000 0.000000 0.000000 10.842610 5.507949 -0.482305 -13.631913 -42.742058 9.503261 178.005791 -67.051487 -179.943902 -3.797908 4.826944 -0.161415 0.370288 0.511120 0.000000 0.000000 0.000000 0.000000 0.000000 0.000000 0.000000 12.181014 -21.886409 2.283248 44.552623 -17.557355 -28.203250 3.253389 33.053528 0.004202 -2.110204 2.050714 -0.040917 0.143978 -0.052091 -0.000000 0.000000 0.000000 0.000000 0.000000 0.000000 0.000000 
10.266822 16.407999 2.680280 135.951663 -84.938472 -127.951589 4.889727 -7.594948 -8.999412 0.998306 -8.158151 -4.046228 -5.699880 -8.142712 2.196437 9.665579 -20.859672 -12.353322 -2.225062 -0.100088 -1.200038 0.000000 0.000000 0.000000 10.361746 5.077565 -0.281796 -15.958277 -40.863803 11.527544 178.248731 -66.624630 -179.945743 -3.870236 4.686116 -0.158175 0.350519 0.507465 0.000000 0.000000 0.000000 0.000000 0.000000 0.000000 0.000000 12.982064 -21.515593 2.278791 45.193185 -16.325887 -27.752610 3.294768 32.724695 0.004501 -2.242714 2.186309 -0.045925 0.139981 -0.045705 -0.000000 0.000000 0.000000 0.000000 0.000000 0.000000 0.000000 
10.127897 16.417835 2.638221 142.618348 -85.076938 -134.852055 5.477227 -7.510799 -8.715187 1.053024 -8.121561 -4.014253 -6.010569 -8.098184 2.130155 9.919036 -20.569297 -12.403925 -2.436458 -0.118347 -1.219640 0.000000 0.000000 0.000000 9.958351 4.584841 -0.100314 -18.416210 -38.702466 13.525008 178.505979 -66.379341 -179.948184 -3.896507 4.531585 -0.152577 0.327586 0.502726 0.000000 0.000000 0.000000 0.000000 0.000000 0.000000 0.000000 13.772087 -21.083387 2.286971 45.934614 -15.024182 -27.272486 3.332210 32.362990 0.004650 -2.357807 2.273863 -0.049936 0.135794 -0.040458 -0.000000 0.000000 0.000000 0.000000 0.000000 0.000000 0.000000 
9.994896 16.428321 2.595352 150.001896 -85.229504 -142.443590 6.088943 -7.443471 -8.403865 1.112699 -8.102661 -3.987642 -6.304130 -8.073560 2.030257 10.186551 -20.241413 -12.433403 -2.644942 -0.136580 -1.233575 0.000000 0.000000 0.000000 9.617512 4.046519 0.059443 -20.942205 -36.311811 15.451899 178.761602 -66.366358 -179.951036 -3.877008 4.381412 -0.145521 0.302318 0.496654 0.000000 0.000000 0.000000 0.000000 0.000000 0.000000 0.000000 14.553378 -20.600206 2.304441 46.772574 -13.667163 -26.775735 3.363078 31.962353 0.004652 -2.463496 2.322901 -0.052950 0.131506 -0.036723 0.000000 0.000000 0.000000 0.000000 0.000000 0.000000 0.000000 
9.867468 16.439631 2.552033 158.808582 -85.442790 -151.423513 6.776960 -7.394380 -8.078546 1.188098 -8.108673 -3.969470 -6.578612 -8.075779 1.895938 10.464138 -19.877098 -12.438403 -2.848239 -0.154637 -1.240644 0.000000 0.000000 0.000000 9.307182 3.485091 0.199742 -23.463383 -33.772437 17.263537 178.998939 -66.630606 -179.954106 -3.811591 4.259214 -0.138010 0.275579 0.489057 0.000000 0.000000 0.000000 0.000000 0.000000 0.000000 0.000000 15.325386 -20.076487 2.327529 47.699014 -12.272708 -26.272761 3.385249 31.518430 0.004525 -2.568414 2.347774 -0.055664 0.127188 -0.034751 0.000000 0.000000 0.000000 0.000000 0.000000 0.000000 0.000000 
9.744913 16.452043 2.508777 171.695476 -85.883501 -164.440764 7.703734 -7.391359 -7.760831 1.314032 -8.185138 -3.963886 -6.837912 -8.148897 1.729843 10.740225 -19.477096 -12.415611 -3.046179 -0.172661 -1.239546 0.000000 0.000000 0.000000 8.987099 2.903831 0.331323 -25.914392 -31.190096 18.921789 179.205264 -67.208070 -179.957244 -3.699828 4.192104 -0.131045 0.248011 0.480040 0.000000 0.000000 0.000000 0.000000 0.000000 0.000000 0.000000 16.086132 -19.539937 2.348425 48.701128 -10.869507 -25.765823 3.396895 31.032150 0.004298 -2.681376 2.365592 -0.058380 0.122920 -0.034535 0.000000 0.000000 0.000000 0.000000 0.000000 0.000000 0.000000 
9.626751 16.465857 2.466079 -162.552888 -87.373213 169.669402 8.838808 -7.722216 -7.544679 1.529036 -8.627818 -3.976880 -7.061943 -8.592502 1.549865 10.991796 -19.045657 -12.347568 -3.244892 -0.191830 -1.224421 0.000000 0.000000 0.000000 8.627580 2.155638 0.492255 -28.233375 -28.724999 20.401738 179.381721 -68.138877 -179.960311 -3.540255 4.206731 -0.125298 0.219285 0.470652 0.000000 0.000000 0.000000 0.000000 0.000000 0.000000 0.000000 16.852089 -19.146024 2.328693 49.763841 -9.532469 -25.253330 3.387876 30.522394 0.004014 -2.811465 2.394173 -0.061702 0.118226 -0.035056 0.000000 0.000000 0.000000 0.000000 0.000000 0.000000 0.000000 
9.512615 16.481371 2.424033 70.334173 -89.931738 -63.419323 7.845120 -8.480396 -7.473053 1.426856 -9.315266 -3.972891 -7.145851 -9.321089 1.403905 11.255925 -18.557013 -12.210277 -3.432578 -0.210243 -1.190548 0.000000 0.000000 0.000000 8.229198 1.265826 0.665200 -30.274296 -26.417665 21.688475 179.539795 -69.362017 -179.963698 -3.331101 4.317461 -0.120785 0.188760 0.456461 0.000000 0.000000 0.000000 0.000000 0.000000 0.000000 0.000000 17.664029 -18.863690 2.266931 50.925775 -8.265634 -24.725968 3.340019 30.021919 0.003676 -2.967575 2.448376 -0.066325 0.111211 -0.035254 0.000000 0.000000 0.000000 0.000000 0.000000 0.000000 0.000000 
9.401889 16.498853 2.383206 111.413548 -88.710170 -104.516827 6.737399 -8.426879 -7.227402 1.164336 -9.143371 -3.970252 -7.271639 -9.174441 1.219083 11.546703 -17.999754 -12.081506 -3.594615 -0.224989 -1.160598 0.000000 0.000000 0.000000 7.741301 0.926691 0.750503 -32.109304 -24.082356 22.767479 179.635788 -70.740471 -179.967669 -3.066291 4.528318 -0.117065 0.160088 0.435287 0.000000 0.000000 0.000000 0.000000 0.000000 0.000000 0.000000 18.424681 -18.110320 2.294966 52.155923 -6.891029 -24.121268 3.309547 29.483795 0.003286 -3.149661 2.533754 -0.072729 0.105720 -0.038781 0.000000 0.000000 0.000000 0.000000 0.000000 0.000000 0.000000 
9.294377 16.518503 2.343692 128.921773 -88.368484 -121.984247 6.597088 -8.232987 -6.985559 1.064891 -8.921856 -3.984610 -7.440868 -8.962641 1.006610 11.796318 -17.395254 -11.926620 -3.756077 -0.240258 -1.122552 0.000000 0.000000 0.000000 7.159532 0.685355 0.844163 -33.785472 -21.945600 23.642916 179.693921 -72.320651 -179.971799 -2.747282 4.837032 -0.112552 0.132116 0.413667 0.000000 0.000000 0.000000 0.000000 0.000000 0.000000 0.000000 19.154565 -17.279658 2.325958 53.403811 -5.573316 -23.427439 3.277917 28.945919 0.002865 -3.358697 2.655944 -0.081132 0.101176 -0.043701 0.000000 0.000000 0.000000 0.000000 0.000000 0.000000 0.000000 
9.189677 16.540379 2.306113 137.336359 -88.389443 -130.336395 6.656962 -8.086878 -6.788263 1.015989 -8.774551 -4.004941 -7.607121 -8.824392 0.790028 11.994413 -16.734610 -11.728705 -3.918282 -0.256171 -1.072274 0.000000 0.000000 0.000000 6.498041 0.442725 0.955799 -35.289165 -20.034399 24.325980 179.731196 -74.033303 -179.976176 -2.377469 5.218345 -0.105537 0.104430 0.392047 0.000000 0.000000 0.000000 0.000000 0.000000 0.000000 0.000000 19.857985 -16.436811 2.344355 54.670843 -4.348897 -22.617218 3.235438 28.443014 0.002406 -3.592731 2.812900 -0.091834 0.096735 -0.049056 0.000000 0.000000 0.000000 0.000000 0.000000 0.000000 0.000000 
9.087732 16.564491 2.270312 142.407165 -88.524920 -135.329481 6.717618 -7.950347 -6.618801 0.972886 -8.641187 -4.027810 -7.765019 -8.700412 0.570424 12.139117 -16.011611 -11.486267 -4.080537 -0.272481 -1.009701 0.000000 0.000000 0.000000 5.777663 0.215981 1.076878 -36.639264 -18.316416 24.829208 179.753803 -75.785539 -179.980801 -1.964347 5.635264 -0.094340 0.077618 0.371030 0.000000 0.000000 0.000000 0.000000 0.000000 0.000000 0.000000 20.526201 -15.548500 2.356759 55.952661 -3.215875 -21.659933 3.183538 27.996773 0.001893 -3.844961 2.996721 -0.104534 0.092396 -0.054749 0.000000 0.000000 0.000000 0.000000 0.000000 0.000000 0.000000 
8.988579 16.590701 2.236320 145.785192 -88.687938 -138.621050 6.746251 -7.799546 -6.464324 0.926255 -8.493194 -4.052564 -7.912684 -8.562124 0.344573 12.225233 -15.225023 -11.198642 -4.242146 -0.289041 -0.934873 0.000000 0.000000 0.000000 5.021727 0.005424 1.201204 -37.872304 -16.755032 25.166935 179.767220 -77.491675 -179.985553 -1.520905 6.043805 -0.078375 0.052388 0.351630 0.000000 0.000000 0.000000 0.000000 0.000000 0.000000 0.000000 21.144424 -14.597612 2.368263 57.240262 -2.171059 -20.527366 3.123809 27.627505 0.001308 -4.106115 3.195998 -0.118931 0.088229 -0.060787 -0.000000 0.000000 0.000000 0.000000 0.000000 0.000000 0.000000 
8.892284 16.618807 2.203829 148.281021 -88.828955 -141.031361 6.732019 -7.620572 -6.306098 0.872280 -8.314546 -4.077385 -8.048627 -8.393512 0.108067 12.250723 -14.373630 -10.865042 -4.401747 -0.305642 -0.847797 0.000000 0.000000 0.000000 4.257102 -0.193903 1.323446 -39.022466 -15.314980 25.353412 179.777018 -79.073664 -179.990231 -1.065838 6.400736 -0.057848 0.029452 0.334703 0.000000 0.000000 0.000000 0.000000 0.000000 0.000000 0.000000 21.699415 -13.573102 2.382860 58.529428 -1.212307 -19.205984 3.056949 27.354630 0.000640 -4.362852 3.399364 -0.134224 0.084275 -0.067235 -0.000000 0.000000 0.000000 0.000000 0.000000 0.000000 0.000000 
